<svg width="120" height="120" viewBox="0 0 120 120" fill="none" xmlns="http://www.w3.org/2000/svg">
<path d="M105.979 59.9095C105.979 85.5984 85.2487 106.423 59.6761 106.423C34.1035 106.423 13.3728 85.5984 13.3728 59.9095C13.3728 34.2205 34.1035 13.3955 59.6761 13.3955C85.2487 13.3955 105.979 34.2205 105.979 59.9095Z" fill="url(#paint0_linear_112_849)"/>
<path d="M100.102 72.0492C100.265 71.3972 100.517 70.8634 100.86 70.4478C101.211 70.0341 101.619 69.722 102.083 69.5112C102.556 69.3025 103.048 69.1814 103.559 69.1478C104.071 69.1143 104.573 69.1487 105.067 69.2511L105.457 67.5918L103.214 67.0143C103.005 66.9604 102.816 66.9077 102.647 66.856C102.485 66.8141 102.355 66.7724 102.258 66.731C102.24 66.8669 102.212 67.0125 102.174 67.1678C102.141 67.3327 102.114 67.4745 102.092 67.5929L101.453 67.4283L102.168 64.5642L102.679 64.6958C102.631 64.956 102.64 65.1523 102.705 65.2849C102.769 65.4253 102.89 65.5349 103.069 65.6139C103.247 65.6928 103.479 65.7692 103.766 65.843L108.6 67.0879C108.771 67.1318 108.932 67.1775 109.085 67.2252C109.246 67.2748 109.384 67.3185 109.498 67.3562C109.523 67.2223 109.551 67.0767 109.582 66.9194C109.613 66.7622 109.64 66.6205 109.663 66.4943L110.303 66.6589L109.588 69.523L109.076 69.3914C109.131 69.141 109.122 68.9446 109.05 68.8023C108.986 68.6619 108.865 68.5522 108.687 68.4733C108.517 68.3964 108.284 68.32 107.99 68.2442L106.096 67.7564L105.68 69.4214C106.135 69.5799 106.57 69.8033 106.985 70.0918C107.405 70.39 107.762 70.7423 108.057 71.1485C108.357 71.5645 108.563 72.0265 108.675 72.5346C108.786 73.0504 108.767 73.6032 108.62 74.1931C108.444 74.8995 108.163 75.4797 107.777 75.9339C107.392 76.3882 106.945 76.7273 106.435 76.9513C105.934 77.1774 105.414 77.308 104.878 77.3434C104.341 77.3787 103.829 77.3335 103.341 77.2078C102.861 77.0841 102.39 76.8721 101.929 76.5716C101.474 76.2809 101.076 75.91 100.735 75.4587C100.4 75.0172 100.168 74.5113 100.038 73.941C99.9082 73.3706 99.9296 72.74 100.102 72.0492ZM100.692 72.263C100.579 72.7132 100.583 73.1272 100.703 73.5051C100.821 73.8907 101.021 74.2312 101.302 74.5266C101.588 74.8317 101.921 75.0866 102.298 75.2912C102.682 75.5056 103.075 75.6647 103.478 75.7684C103.974 75.8961 104.465 75.9567 104.954 75.9502C105.447 75.9535 105.906 75.8817 106.331 75.7349C106.761 75.5978 107.124 75.3815 107.42 75.0861C107.724 74.7927 107.933 74.417 108.048 73.959C108.147 73.5632 108.128 73.1908 107.993 72.842C107.855 72.5009 107.64 72.1895 107.348 71.9077C107.061 71.6356 106.725 71.3963 106.34 71.1896C105.96 70.9927 105.565 70.8414 105.154 70.7357C104.751 70.6319 104.313 70.5727 103.838 70.5579C103.364 70.5431 102.908 70.5867 102.47 70.6888C102.032 70.7908 101.653 70.97 101.334 71.2264C101.014 71.4828 100.8 71.8284 100.692 72.263Z" fill="black"/>
<path d="M93.2229 80.8128L93.6245 81.1174C93.4823 81.3108 93.4274 81.48 93.4597 81.625C93.4921 81.7701 93.5832 81.9095 93.7331 82.0432C93.8782 82.1835 94.0559 82.3333 94.2662 82.4929L98.6854 85.8607C98.7874 85.938 98.8934 86.0235 99.0034 86.1169C99.1197 86.2152 99.2305 86.3144 99.3358 86.4143C99.41 86.2999 99.4889 86.179 99.5726 86.0517C99.6626 85.9293 99.7424 85.8141 99.8118 85.7061L100.319 86.0905C100.105 86.3806 99.9521 86.6158 99.8591 86.7963C99.7678 86.988 99.7104 87.1403 99.6871 87.2531C99.6589 87.3724 99.6506 87.4715 99.6621 87.5504L99.4061 87.8985C99.3377 87.8566 99.2564 87.805 99.1625 87.7437C99.0685 87.6825 98.9745 87.6212 98.8806 87.56C98.9074 87.9016 98.8762 88.2344 98.7869 88.5583C98.6977 88.8822 98.5607 89.1698 98.3759 89.4211C98.101 89.795 97.751 90.0616 97.326 90.2211C96.9026 90.3918 96.4437 90.4353 95.9493 90.3514C95.4502 90.274 94.9553 90.0491 94.4646 89.6768C93.9356 89.2755 93.5477 88.8105 93.3009 88.2819C93.0542 87.7534 92.9535 87.2151 92.9989 86.6672C93.046 86.1306 93.2354 85.6367 93.5671 85.1856C93.7188 84.9793 93.8841 84.8085 94.063 84.6732C94.2356 84.533 94.4202 84.417 94.6168 84.3252L93.2497 83.288C93.135 83.201 93.0226 83.1107 92.9126 83.0173C92.7915 82.9254 92.6752 82.8271 92.5636 82.7223C92.4941 82.8303 92.4246 82.9382 92.3552 83.0462C92.2746 83.1558 92.2044 83.2581 92.1444 83.3531L91.6377 82.9687L93.2229 80.8128ZM94.114 85.495C93.8865 85.8044 93.7886 86.1267 93.8201 86.4619C93.8533 86.8083 93.9873 87.146 94.2221 87.4747C94.4586 87.8148 94.7712 88.1323 95.16 88.4272C95.485 88.6738 95.8273 88.8632 96.1868 88.9954C96.5527 89.1324 96.9016 89.1712 97.2333 89.1116C97.5667 89.0633 97.8463 88.8788 98.0721 88.5582C98.2191 88.3584 98.3111 88.132 98.3482 87.879C98.3853 87.626 98.3787 87.3851 98.3285 87.1562C98.2457 87.0934 98.1565 87.0257 98.0609 86.9532C97.9605 86.8871 97.8371 86.7984 97.6905 86.6872C97.5503 86.5808 97.3686 86.443 97.1455 86.2738C96.9288 86.1094 96.6572 85.8983 96.3305 85.6404C96.0054 85.3938 95.6103 85.094 95.145 84.741C94.9546 84.7974 94.7692 84.8876 94.5886 85.0117C94.4033 85.1422 94.2451 85.3033 94.114 85.495Z" fill="black"/>
<path d="M88.562 97.0897C88.7526 96.9439 88.8527 96.7969 88.8622 96.6486C88.8718 96.5003 88.8265 96.3385 88.7265 96.1632C88.6201 95.9929 88.4914 95.7992 88.3406 95.5823L86.7469 93.4326C86.6611 93.3169 86.5761 93.1956 86.492 93.0686C86.4126 92.9481 86.334 92.8219 86.2561 92.6901C86.1592 92.7743 86.06 92.8553 85.9583 92.933C85.855 93.0221 85.7613 93.1038 85.6771 93.1783L85.2983 92.6674L87.4238 91.0416L87.724 91.4465C87.5334 91.5923 87.4333 91.7393 87.4237 91.8876C87.4142 92.0359 87.4594 92.1977 87.5595 92.3729C87.6595 92.5482 87.7882 92.7418 87.9454 92.9539L89.5391 95.1036C89.6248 95.2193 89.713 95.3382 89.8035 95.4603C89.8877 95.5872 89.9631 95.7158 90.0298 95.8461C90.1267 95.7619 90.2268 95.6753 90.33 95.5862C90.4381 95.5036 90.5342 95.425 90.6184 95.3506L90.9971 95.8615L88.8621 97.4946L88.562 97.0897ZM86.7177 98.2285L86.1292 98.1802L86.5016 92.6383L87.1234 92.6914L86.7177 98.2285ZM85.4166 99.4956C85.6009 99.3547 85.701 99.2076 85.7169 99.0545C85.7264 98.9062 85.6812 98.7444 85.5811 98.5692C85.4747 98.3988 85.3429 98.2076 85.1857 97.9955L83.6015 95.8385C83.5158 95.7228 83.4308 95.6015 83.3466 95.4746C83.2672 95.354 83.1886 95.2278 83.1108 95.096C83.0139 95.1802 82.9114 95.2636 82.8034 95.3462C82.7002 95.4353 82.6064 95.5171 82.5222 95.5915L82.1435 95.0806L84.2785 93.4475L84.5786 93.8524C84.388 93.9982 84.2879 94.1452 84.2784 94.2935C84.2688 94.4418 84.3141 94.6036 84.4141 94.7789C84.5142 94.9541 84.6428 95.1478 84.8 95.3598L86.3937 97.5095C86.4795 97.6252 86.5645 97.7465 86.6486 97.8735C86.7328 98.0004 86.8114 98.1266 86.8845 98.252C86.9814 98.1678 87.0814 98.0812 87.1847 97.9922C87.2864 97.9144 87.3793 97.8383 87.4635 97.7638L87.8423 98.2747L85.7168 99.9005L85.4166 99.4956Z" fill="black"/>
<path d="M77.0804 95.5553L78.0603 98.1484L77.5683 98.3402C77.3895 98.4099 77.2573 98.5129 77.172 98.6492C77.0821 98.7959 77.0344 99.0206 77.029 99.3232C77.0262 99.5647 77.0422 99.8332 77.0769 100.129C77.1145 100.432 77.1731 100.757 77.2528 101.103C77.325 101.453 77.4155 101.817 77.5243 102.195C77.6256 102.577 77.7437 102.968 77.8787 103.371L78.8749 102.918L79.1039 103.524L73.961 105.529L73.7828 105.058C74.0064 104.971 74.1432 104.857 74.193 104.718C74.2429 104.578 74.2436 104.41 74.1953 104.214C74.1395 104.022 74.065 103.802 73.9716 103.555L73.0257 101.051C72.9823 100.914 72.9374 100.772 72.8911 100.627C72.8477 100.49 72.8066 100.347 72.7677 100.199L71.7226 100.658L70.73 98.0312L71.2555 97.8263C71.4845 98.4325 71.7331 98.898 72.0012 99.2228C72.259 99.543 72.5631 99.6348 72.9134 99.4982L76.424 98.1295C76.7594 97.9987 76.925 97.7238 76.9206 97.3048C76.9087 96.8887 76.7868 96.3739 76.555 95.7602L77.0804 95.5553ZM76.4615 98.7717L74.5608 99.5127C74.3372 99.5999 74.2005 99.7133 74.1506 99.853C74.0933 99.9955 74.0926 100.163 74.1484 100.356C74.1995 100.559 74.2704 100.781 74.3608 101.02L75.2686 103.422C75.3195 103.557 75.3667 103.693 75.4101 103.831C75.4535 103.969 75.4947 104.111 75.5335 104.259L76.6068 103.841C76.823 103.757 76.9546 103.641 77.0016 103.494C77.0412 103.35 77.0348 103.163 76.9827 102.935C76.8436 102.431 76.7275 101.965 76.6344 101.538C76.5442 101.118 76.476 100.745 76.43 100.42C76.3765 100.097 76.3465 99.8254 76.3401 99.6047C76.3414 99.4496 76.3543 99.3029 76.379 99.1645C76.3962 99.029 76.4237 98.8981 76.4615 98.7717Z" fill="black"/>
<path d="M64.3604 106.909C64.5994 106.887 64.7619 106.817 64.8479 106.696C64.9338 106.576 64.9801 106.416 64.9868 106.214C64.9855 106.014 64.9774 105.781 64.9626 105.518L64.7318 102.852C64.7193 102.708 64.7105 102.56 64.7054 102.408C64.7009 102.264 64.7001 102.115 64.703 101.963C64.5762 101.982 64.449 101.997 64.3215 102.009C64.1867 102.029 64.0639 102.048 63.9531 102.066L63.8982 101.432L66.5636 101.194L66.6071 101.696C66.368 101.717 66.2055 101.788 66.1196 101.908C66.0336 102.028 65.9873 102.189 65.9806 102.391C65.974 102.592 65.982 102.824 66.0048 103.087L66.2357 105.753C66.2481 105.897 66.2609 106.044 66.274 106.196C66.2791 106.348 66.2759 106.497 66.2645 106.642C66.3913 106.623 66.522 106.603 66.6568 106.583C66.7923 106.571 66.9154 106.556 67.0263 106.538L67.0812 107.172L64.4038 107.411L64.3604 106.909ZM62.1903 106.886L61.7139 106.531L64.9394 102.05L65.4417 102.427L62.1903 106.886ZM60.4161 107.261C60.6471 107.24 60.8096 107.17 60.9036 107.049C60.9895 106.929 61.0358 106.768 61.0425 106.567C61.0412 106.366 61.0291 106.134 61.0064 105.871L60.7875 103.204C60.775 103.06 60.7663 102.913 60.7611 102.761C60.7567 102.616 60.7558 102.468 60.7587 102.315C60.6319 102.334 60.5007 102.35 60.3653 102.362C60.2305 102.382 60.1077 102.401 59.9968 102.419L59.942 101.786L62.6193 101.546L62.6628 102.048C62.4237 102.07 62.2612 102.141 62.1753 102.261C62.0893 102.381 62.043 102.542 62.0363 102.743C62.0297 102.944 62.0378 103.177 62.0605 103.44L62.2914 106.106C62.3038 106.249 62.3126 106.397 62.3177 106.549C62.3229 106.701 62.3237 106.85 62.3202 106.995C62.447 106.975 62.5778 106.956 62.7125 106.935C62.84 106.924 62.9592 106.909 63.0701 106.891L63.1249 107.525L60.4595 107.763L60.4161 107.261Z" fill="black"/>
<path d="M51.9547 100.92L51.8682 101.416C51.632 101.374 51.457 101.399 51.3433 101.492C51.2296 101.586 51.1477 101.73 51.0977 101.924C51.0397 102.117 50.9881 102.343 50.9428 102.603L50.844 103.171C51.0741 103.155 51.31 103.153 51.5517 103.164C51.7855 103.173 51.9969 103.195 52.1859 103.229C52.8867 103.355 53.3794 103.626 53.6641 104.043C53.9395 104.466 54.0275 105.011 53.9279 105.675C53.8908 105.888 53.8533 106.081 53.8152 106.253C53.7771 106.425 53.7379 106.58 53.6974 106.719L54.4477 106.817L54.3386 107.444L51.752 106.979L51.8385 106.483C52.0826 106.526 52.2649 106.482 52.3854 106.349C52.506 106.216 52.604 105.933 52.6795 105.5C52.755 105.066 52.7189 104.714 52.5711 104.444C52.4219 104.182 52.1347 104.012 51.7095 103.936C51.5599 103.909 51.4011 103.888 51.233 103.874C51.0556 103.867 50.8841 103.873 50.7184 103.892L50.4719 105.237C50.4472 105.379 50.4218 105.525 50.3957 105.675C50.3617 105.823 50.3206 105.966 50.2723 106.104L50.9399 106.187L50.8307 106.814L48.2914 106.357L48.3779 105.861C48.6062 105.902 48.7773 105.876 48.891 105.782C49.0047 105.689 49.0905 105.546 49.1484 105.353C49.1985 105.159 49.2501 104.932 49.3033 104.674L49.7624 102.037C49.7871 101.896 49.8164 101.75 49.8504 101.602C49.8829 101.462 49.9202 101.318 49.962 101.171L49.2117 101.073L49.3208 100.446L51.9547 100.92Z" fill="black"/>
<path d="M42.3902 97.62C42.8997 97.8524 43.3065 98.1786 43.6106 98.5987C43.9042 99.0227 44.072 99.5037 44.1141 100.042C44.1529 100.587 44.0413 101.156 43.7793 101.749C43.5528 102.261 43.2281 102.689 42.8052 103.032C42.3749 103.372 41.8925 103.583 41.358 103.664C40.8202 103.753 40.2783 103.673 39.7324 103.424C39.4267 103.284 39.1603 103.106 38.933 102.888C38.6985 102.667 38.521 102.405 38.4005 102.104C38.2694 101.807 38.2132 101.469 38.2318 101.091C38.2472 100.72 38.3552 100.307 38.5557 99.8538L42.3405 101.501C42.5605 101.004 42.7016 100.536 42.7639 100.098C42.8189 99.6575 42.7659 99.2728 42.605 98.9444C42.444 98.616 42.1598 98.3589 41.7522 98.173C41.5557 98.0833 41.3337 98.0216 41.0862 97.9879C40.8282 97.9581 40.5718 97.9643 40.3171 98.0063C40.0551 98.0451 39.8145 98.1244 39.5953 98.2442L39.3879 97.7935C39.7518 97.5638 40.1177 97.4186 40.4857 97.3579C40.8504 97.3044 41.1982 97.3092 41.529 97.3721C41.8557 97.4245 42.1428 97.5071 42.3902 97.62ZM42.0446 102.052L39.5226 100.901C39.3996 101.18 39.3297 101.447 39.3127 101.703C39.2852 101.963 39.3224 102.195 39.4243 102.4C39.5262 102.604 39.7009 102.763 39.9484 102.876C40.3341 103.052 40.7057 103.072 41.0632 102.936C41.4174 102.808 41.7445 102.513 42.0446 102.052Z" fill="black"/>
<path d="M33.7074 92.132C34.1259 92.4669 34.4365 92.8692 34.6392 93.3387C34.837 93.8146 34.9024 94.3177 34.8353 94.8479C34.7619 95.3732 34.5267 95.8919 34.1296 96.4039C33.8648 96.7453 33.553 97.0234 33.194 97.2381C32.8302 97.4592 32.4465 97.6081 32.0429 97.6847C31.6331 97.7563 31.2275 97.7442 30.826 97.6483C30.4134 97.5538 30.026 97.3616 29.6637 97.0717C29.2952 96.7768 29.0239 96.4674 28.8498 96.1437C28.6757 95.82 28.591 95.5115 28.5958 95.2182C28.5943 94.9199 28.6769 94.6633 28.8436 94.4484C28.9613 94.2967 29.108 94.1989 29.2837 94.1551C29.4594 94.1113 29.6284 94.1543 29.7908 94.2843C29.9769 94.4229 30.0633 94.5791 30.05 94.7529C30.0318 94.933 29.9834 95.0736 29.905 95.1748C29.8609 95.2317 29.8025 95.2874 29.7298 95.3419C29.6522 95.4028 29.5664 95.4417 29.4723 95.4586C29.4193 95.6313 29.4245 95.7943 29.4879 95.9475C29.5513 96.1006 29.635 96.2342 29.739 96.3481C29.8429 96.4621 29.9355 96.5515 30.0167 96.6165C30.4027 96.9151 30.8543 97.005 31.3716 96.8862C31.8777 96.7687 32.3686 96.4034 32.8441 95.7902C33.1481 95.3983 33.364 95.0025 33.4918 94.6027C33.6134 94.198 33.6328 93.814 33.5501 93.4507C33.4675 93.0875 33.2724 92.7777 32.965 92.5215C32.6839 92.2965 32.3558 92.1518 31.9807 92.0873C31.6007 92.0291 31.2412 92.0488 30.9023 92.1464L30.8084 91.6409C31.2102 91.5014 31.5935 91.4445 31.9583 91.47C32.3169 91.4906 32.645 91.5636 32.9425 91.689C33.2338 91.8094 33.4888 91.9571 33.7074 92.132Z" fill="black"/>
<path d="M27.6786 88.0108L27.2816 88.3213C27.1366 88.13 26.991 88.0306 26.8448 88.0231C26.6986 88.0156 26.5395 88.0639 26.3674 88.168C26.1954 88.2721 26.0054 88.4054 25.7974 88.5681L23.6823 90.2071C23.5689 90.2958 23.4523 90.387 23.3325 90.4806C23.208 90.5679 23.0817 90.6463 22.9538 90.7159C23.0374 90.813 23.1235 90.9132 23.2119 91.0167C23.2941 91.1251 23.3721 91.2214 23.4461 91.3057L22.9451 91.6976L21.3286 89.565L21.7256 89.2545C21.8658 89.4394 22.0114 89.5388 22.1624 89.5526C22.3086 89.5601 22.4677 89.5119 22.6398 89.4078C22.807 89.2973 22.9946 89.1608 23.2025 88.9981L23.7602 88.562L23.4558 88.1603L21.6265 87.9916C21.4483 87.9684 21.2925 87.9481 21.1589 87.9308C21.0252 87.9134 20.9011 87.8887 20.7864 87.8565L21.262 88.4442L20.7704 88.8286L19.3424 86.9447L19.73 86.6416C19.9243 86.845 20.1451 86.9973 20.3924 87.0984C20.6285 87.198 20.8683 87.2694 21.1118 87.3126C21.3553 87.3557 21.5724 87.3839 21.7632 87.3972L23.0369 87.5283C23.0018 87.3628 22.9945 87.2009 23.0151 87.0427C23.0293 86.8893 23.064 86.7099 23.119 86.5044L23.4623 85.1697C23.4759 85.1082 23.5066 85.003 23.5543 84.854C23.5908 84.7036 23.624 84.5355 23.6538 84.3497C23.6836 84.1639 23.6952 83.9872 23.6887 83.8197C23.6773 83.6458 23.633 83.5078 23.5556 83.4058L23.9526 83.0954L24.6703 84.0421C24.8104 84.227 24.8558 84.4657 24.8065 84.7581C24.7524 85.0442 24.6756 85.3733 24.5763 85.7455C24.4906 86.0562 24.4079 86.3443 24.3281 86.6098C24.242 86.8802 24.1676 87.1263 24.1048 87.3481C24.0372 87.5634 23.9914 87.7414 23.9675 87.882L24.2328 88.1923L25.3177 87.3591C25.4311 87.2704 25.5501 87.1824 25.6747 87.0952C25.7881 87.0065 25.9119 86.9248 26.0461 86.8503C25.9625 86.7533 25.882 86.6537 25.8047 86.5517C25.7163 86.4482 25.6326 86.3512 25.5539 86.2605L26.0548 85.8687L27.6786 88.0108Z" fill="black"/>
<path d="M15.5521 78.5292C15.642 78.7518 15.7565 78.8861 15.8959 78.932C16.0352 78.978 16.2017 78.9737 16.3953 78.919C16.5859 78.857 16.8045 78.7789 17.0513 78.6849L19.5216 77.6561C19.6545 77.6007 19.7927 77.5476 19.936 77.4965C20.0719 77.4486 20.213 77.4028 20.3593 77.3592C20.304 77.2436 20.2524 77.1265 20.2045 77.0078C20.1463 76.8847 20.0925 76.7728 20.0432 76.672L20.6303 76.4275L21.6318 78.909L21.1666 79.1028C21.0767 78.8802 20.9622 78.746 20.8228 78.7C20.6835 78.654 20.5171 78.6584 20.3234 78.713C20.1298 78.7676 19.9112 78.8457 19.6675 78.9472L17.1971 79.9759C17.0642 80.0313 16.9275 80.0882 16.7872 80.1466C16.6439 80.1976 16.5013 80.2397 16.3594 80.2728C16.4147 80.3884 16.4715 80.5077 16.5297 80.6308C16.5806 80.7569 16.6307 80.8703 16.68 80.9711L16.0929 81.2156L15.0869 78.723L15.5521 78.5292ZM14.9431 76.4432L15.1425 75.8792L20.345 77.6122L20.1324 78.2076L14.9431 76.4432ZM14.07 74.8571C14.1568 75.0722 14.2714 75.2065 14.4137 75.2599C14.5531 75.3058 14.7195 75.3015 14.9131 75.2469C15.1038 75.1848 15.3209 75.103 15.5646 75.0015L18.0395 73.9839C18.1724 73.9286 18.3105 73.8754 18.4538 73.8244C18.5898 73.7764 18.7309 73.7307 18.8772 73.6871C18.8219 73.5714 18.7688 73.4506 18.7179 73.3245C18.6596 73.2014 18.6058 73.0895 18.5565 72.9887L19.1437 72.7442L20.1497 75.2369L19.6844 75.4306C19.5946 75.2081 19.48 75.0738 19.3407 75.0278C19.2014 74.9819 19.0349 74.9862 18.8413 75.0408C18.6477 75.0955 18.429 75.1735 18.1853 75.275L15.715 76.3037C15.582 76.3591 15.4439 76.4123 15.3006 76.4633C15.1573 76.5143 15.0162 76.5601 14.8772 76.6006C14.9325 76.7162 14.9893 76.8356 15.0476 76.9586C15.0955 77.0773 15.1441 77.187 15.1934 77.2878L14.6063 77.5323L13.6047 75.0508L14.07 74.8571Z" fill="black"/>
<path d="M12.163 65.3835C12.1869 65.6224 12.2593 65.7838 12.3803 65.8678C12.5013 65.9518 12.6624 65.9955 12.8638 65.9988C13.0643 65.9942 13.2963 65.9823 13.5597 65.9631L16.2215 65.6881C16.3647 65.6733 16.5124 65.6621 16.6644 65.6544C16.8084 65.6476 16.9568 65.6443 17.1096 65.6446C17.0889 65.5181 17.0721 65.3911 17.0594 65.2637C17.0379 65.1292 17.0176 65.0067 16.9985 64.8961L17.6311 64.8307L17.8977 67.4934L17.3964 67.5452C17.3725 67.3064 17.3 67.145 17.179 67.061C17.0581 66.9769 16.8969 66.9333 16.6956 66.9299C16.4943 66.9266 16.2623 66.9385 15.9997 66.9656L13.3379 67.2406C13.1946 67.2554 13.0474 67.2706 12.8962 67.2863C12.7442 67.2939 12.5954 67.2932 12.4498 67.2841C12.4705 67.4107 12.4916 67.5412 12.5131 67.6757C12.5266 67.811 12.543 67.934 12.5621 68.0446L11.9295 68.11L11.6617 65.4353L12.163 65.3835ZM12.1626 63.2121L12.5123 62.7296L17.0249 65.8826L16.6537 66.3914L12.1626 63.2121ZM11.7685 61.4433C11.7916 61.6741 11.864 61.8355 11.9858 61.9275C12.1068 62.0115 12.2679 62.0552 12.4692 62.0585C12.6698 62.0539 12.9013 62.038 13.1639 62.0108L15.827 61.7478C15.9702 61.733 16.1178 61.7218 16.2698 61.7141C16.4138 61.7073 16.5623 61.704 16.7151 61.7043C16.6943 61.5778 16.6772 61.4468 16.6637 61.3115C16.6422 61.177 16.6218 61.0544 16.6027 60.9438L17.2354 60.8785L17.5032 63.5531L17.0018 63.6049C16.9779 63.3661 16.9055 63.2047 16.7845 63.1207C16.6635 63.0366 16.5024 62.993 16.3011 62.9896C16.0997 62.9863 15.8678 62.9982 15.6052 63.0253L12.9433 63.3003C12.8001 63.3151 12.6525 63.3264 12.5005 63.334C12.3485 63.3417 12.2001 63.345 12.0552 63.3438C12.0759 63.4704 12.0971 63.6009 12.1186 63.7354C12.1313 63.8628 12.1473 63.9818 12.1664 64.0924L11.5337 64.1577L11.2671 61.495L11.7685 61.4433ZM10.6684 64.9106C10.7179 65.4042 10.6598 65.8284 10.4944 66.1833C10.3289 66.5381 10.0711 66.7337 9.72097 66.7698C9.55386 66.7871 9.41022 66.7577 9.29004 66.6816C9.16111 66.5985 9.0839 66.4697 9.05841 66.2954C9.04326 66.1442 9.06752 66.025 9.13116 65.938C9.18686 65.8519 9.25687 65.7883 9.34122 65.7474C9.42557 65.7066 9.49957 65.6828 9.56323 65.6763C9.63485 65.6689 9.71124 65.669 9.79242 65.6767C9.86563 65.6852 9.94043 65.7097 10.0168 65.75C10.098 65.6773 10.1513 65.5672 10.1767 65.4199C10.1934 65.2653 10.1942 65.1124 10.179 64.9612C10.1639 64.8099 10.1332 64.6643 10.0871 64.5243C10.0321 64.3772 9.95771 64.2763 9.8638 64.2217C9.79617 64.2689 9.72734 64.3041 9.65732 64.3275C9.57933 64.3516 9.50493 64.3713 9.43411 64.3867C9.37045 64.3933 9.29326 64.3852 9.20253 64.3624C9.11181 64.3396 9.03064 64.2917 8.959 64.2186C8.87862 64.1385 8.83085 64.0228 8.81571 63.8715C8.80693 63.7035 8.85744 63.5656 8.96724 63.4578C9.06908 63.3507 9.20356 63.2886 9.37067 63.2713C9.72081 63.2352 10.0125 63.3779 10.2457 63.6997C10.4781 64.0134 10.619 64.4171 10.6684 64.9106Z" fill="black"/>
<path d="M18.1274 51.1684L17.6435 51.0276C17.7086 50.7966 17.7004 50.6192 17.6189 50.4956C17.5374 50.3719 17.4039 50.2706 17.2184 50.1916C17.0329 50.1126 16.8134 50.0363 16.5599 49.9625L13.9937 49.2035C13.8554 49.1632 13.7133 49.1219 13.5673 49.0794C13.4236 49.0293 13.2858 48.9725 13.154 48.9092C13.127 49.0347 13.0988 49.1639 13.0696 49.2971C13.0327 49.428 13.0029 49.5484 12.9802 49.6585L12.3695 49.4808L13.0957 46.9052L13.5796 47.046C13.5167 47.2693 13.5249 47.4466 13.6042 47.578C13.6857 47.7017 13.8192 47.803 14.0047 47.882C14.1924 47.9533 14.413 48.0258 14.6665 48.0995L15.3463 48.2973L15.4831 47.8122L14.523 46.2207C14.4348 46.0618 14.3577 45.9227 14.2916 45.8035C14.2254 45.6842 14.1708 45.5684 14.1277 45.4559L13.9456 46.1902L13.3465 46.0159L13.988 43.7406L14.4604 43.878C14.4152 44.1565 14.4263 44.4263 14.494 44.6876C14.5561 44.939 14.6428 45.1767 14.7542 45.4007C14.8656 45.6247 14.973 45.8184 15.0766 45.9818L15.7343 47.098C15.8447 46.9718 15.9689 46.8704 16.1068 46.7939C16.2371 46.7152 16.4002 46.6377 16.5963 46.5614L17.8612 46.0546C17.9182 46.0295 18.02 45.9925 18.1668 45.9436C18.3081 45.8847 18.4614 45.8126 18.6267 45.7274C18.792 45.6422 18.9393 45.5476 19.0683 45.4435C19.1996 45.3317 19.2826 45.2142 19.3173 45.091L19.8013 45.2318L19.4789 46.3752C19.4159 46.5985 19.2536 46.7763 18.9919 46.9084C18.7324 47.0329 18.4252 47.1643 18.0704 47.3027C17.7725 47.416 17.4942 47.5183 17.2357 47.6097C16.9696 47.6989 16.7297 47.7833 16.5161 47.8628C16.3047 47.9346 16.136 48.0021 16.0101 48.0655L15.9224 48.4649L17.2327 48.8586C17.371 48.8988 17.512 48.944 17.6558 48.9941C17.7941 49.0344 17.9329 49.0873 18.0723 49.1528C18.0994 49.0274 18.1303 48.9031 18.165 48.7799C18.1943 48.6467 18.2213 48.5213 18.2462 48.4036L18.8569 48.5812L18.1274 51.1684Z" fill="black"/>
<path d="M23.0382 38.89C22.7557 39.3828 22.3909 39.7618 21.9437 40.027C21.4966 40.2923 21.0091 40.4268 20.4814 40.4306C19.9507 40.4234 19.4272 40.2671 18.9108 39.9616C18.353 39.6317 17.9264 39.2259 17.6308 38.7444C17.3323 38.2518 17.1725 37.7344 17.1514 37.1922C17.1304 36.65 17.2591 36.1359 17.5376 35.6501C17.8201 35.1574 18.1884 34.7804 18.6424 34.5192C19.0896 34.2539 19.5785 34.1249 20.1091 34.1321C20.6369 34.1283 21.159 34.2792 21.6754 34.5846C22.2194 34.9064 22.6426 35.3101 22.945 35.7957C23.2475 36.2814 23.4093 36.7953 23.4304 37.3375C23.4554 37.8728 23.3247 38.3903 23.0382 38.89ZM22.5636 38.5116C22.7477 38.1744 22.7936 37.8531 22.7014 37.5476C22.6131 37.2351 22.4379 36.9456 22.1758 36.6791C21.9068 36.4084 21.6037 36.1733 21.2663 35.9737C20.9702 35.7986 20.6651 35.6553 20.3509 35.5438C20.0339 35.4213 19.7265 35.3463 19.4287 35.3189C19.131 35.2915 18.8615 35.3272 18.6203 35.4262C18.3723 35.5211 18.1781 35.699 18.0377 35.9599C17.8507 36.2861 17.7974 36.6123 17.8777 36.9387C17.962 37.2581 18.1346 37.56 18.3956 37.8445C18.6538 38.118 18.9584 38.3587 19.3096 38.5664C19.7158 38.8067 20.1312 38.9827 20.5559 39.0945C20.9805 39.2063 21.3715 39.2238 21.729 39.1472C22.0904 39.0636 22.3686 38.8517 22.5636 38.5116Z" fill="black"/>
<path d="M28.6754 32.3772C28.4489 32.6031 28.2204 32.7293 27.99 32.7557C27.7597 32.7821 27.5639 32.7119 27.4026 32.5451C27.2581 32.3955 27.1837 32.2381 27.1797 32.0727C27.1756 31.9073 27.2415 31.7511 27.3776 31.6042C27.5249 31.4573 27.6686 31.393 27.8087 31.4114C27.949 31.4184 28.0608 31.4651 28.1442 31.5513C28.1776 31.5859 28.2081 31.6232 28.2358 31.6634C28.2579 31.6978 28.2717 31.7292 28.277 31.7578C28.322 31.7468 28.3559 31.73 28.3785 31.7074C28.5031 31.5831 28.5082 31.3409 28.3936 30.9807C28.2847 30.6148 28.0282 30.1307 27.624 29.5284C27.2199 28.9146 26.6401 28.1767 25.8847 27.3146L25.1277 28.1543L24.6774 27.6883L28.5094 23.8667L28.8597 24.2291C28.6954 24.3929 28.6154 24.5518 28.6196 24.7058C28.6295 24.8541 28.6954 25.0086 28.8174 25.1694C28.9451 25.3245 29.1006 25.497 29.2841 25.6868L31.1439 27.6109C31.2383 27.7201 31.3355 27.8321 31.4355 27.9471C31.5299 28.0563 31.6214 28.174 31.7101 28.3002L32.2288 27.732L32.6709 28.1893L30.7676 30.0874L30.4173 29.725C30.5872 29.5556 30.6673 29.3967 30.6574 29.2483C30.6532 29.0944 30.5873 28.9398 30.4596 28.7847C30.3376 28.624 30.1877 28.4459 30.0099 28.2504L28.1501 26.3263C28.05 26.2228 27.9499 26.1192 27.8499 26.0157C27.7554 25.9065 27.6667 25.7917 27.5836 25.6712L26.8699 26.383C26.6999 26.5524 26.6282 26.72 26.6548 26.8855C26.6813 27.0511 26.7836 27.2259 26.9615 27.41C27.3835 27.9042 27.7579 28.3894 28.0847 28.8656C28.4115 29.3418 28.6654 29.8002 28.8466 30.2408C29.0279 30.6701 29.1084 31.0699 29.0882 31.4403C29.0736 31.805 28.936 32.1173 28.6754 32.3772Z" fill="black"/>
<path d="M37.507 24.733C37.2266 24.8871 36.9719 24.9448 36.7429 24.9063C36.514 24.8678 36.345 24.7461 36.236 24.5414C36.1382 24.3578 36.1102 24.186 36.152 24.0262C36.1938 23.8663 36.3004 23.7347 36.4719 23.6314C36.6543 23.5312 36.8103 23.5094 36.9401 23.5659C37.0731 23.6115 37.1678 23.6872 37.2242 23.7932C37.2467 23.8355 37.2658 23.8798 37.2813 23.9261C37.2931 23.9652 37.2976 23.9992 37.2949 24.0281C37.3412 24.0301 37.3784 24.0233 37.4065 24.0079C37.5607 23.9232 37.6325 23.6921 37.6219 23.3146C37.6182 22.9333 37.5052 22.3976 37.2828 21.7075C37.0636 21.0064 36.7098 20.1375 36.2212 19.1008L35.2608 19.6968L34.9562 19.1248L39.6997 16.5192L39.9366 16.9641C39.7332 17.0758 39.6123 17.2061 39.5738 17.355C39.5423 17.5001 39.563 17.6667 39.6359 17.8548C39.7159 18.039 39.8179 18.2477 39.942 18.4807L41.1996 20.8428C41.2602 20.9738 41.3228 21.1082 41.3872 21.2463C41.4478 21.3772 41.5034 21.5156 41.5538 21.6613L42.21 21.2598L42.5089 21.8211L40.1529 23.1153L39.9161 22.6704C40.1264 22.5549 40.2473 22.4246 40.2788 22.2795C40.3174 22.1305 40.2966 21.964 40.2167 21.7797C40.1437 21.5916 40.0487 21.3791 39.9317 21.1422L38.6741 18.7802C38.6064 18.653 38.5387 18.5259 38.4711 18.3988C38.4104 18.2679 38.3568 18.1331 38.3101 17.9944L37.4266 18.4797C37.2163 18.5953 37.101 18.7362 37.0808 18.9024C37.0605 19.0687 37.1106 19.2648 37.2309 19.4908C37.5004 20.082 37.7265 20.6514 37.9093 21.199C38.0921 21.7466 38.2097 22.257 38.2622 22.7301C38.318 23.1923 38.285 23.5984 38.1631 23.9482C38.0483 24.2942 37.8296 24.5558 37.507 24.733Z" fill="black"/>
<path d="M50.1417 19.4875C49.5971 19.6181 49.078 19.6109 48.5844 19.466C48.0968 19.3114 47.6751 19.034 47.3194 18.634C46.9618 18.2261 46.7097 17.7065 46.563 17.0754C46.4363 16.5299 46.4383 15.9906 46.569 15.4574C46.7076 14.9224 46.965 14.4576 47.3415 14.063C47.7161 13.6606 48.1952 13.3894 48.7787 13.2496C49.1054 13.1712 49.4245 13.1482 49.7359 13.1805C50.055 13.211 50.3527 13.3083 50.629 13.4724C50.9113 13.6268 51.1584 13.8596 51.3703 14.1708C51.5804 14.4742 51.7416 14.8674 51.8538 15.3505L47.8558 16.3829C47.979 16.9128 48.1468 17.3703 48.3595 17.7553C48.5799 18.1385 48.8525 18.4104 49.1773 18.5711C49.5021 18.7318 49.8823 18.76 50.318 18.6555C50.528 18.6052 50.7416 18.517 50.9587 18.3909C51.1817 18.2552 51.382 18.092 51.5595 17.9014C51.7447 17.7089 51.8886 17.4975 51.9912 17.2673L52.4262 17.4962C52.2743 17.9028 52.0702 18.2437 51.8139 18.5191C51.5557 18.7866 51.2762 18.9976 50.9753 19.152C50.6841 19.3123 50.4062 19.4241 50.1417 19.4875ZM47.7613 15.7639L50.457 15.1178C50.3882 14.8217 50.2838 14.567 50.1439 14.3537C50.01 14.1308 49.8412 13.9697 49.6374 13.8705C49.4337 13.7712 49.1996 13.7533 48.9351 13.8167C48.5228 13.9156 48.2151 14.1291 48.0122 14.4575C47.8074 14.7781 47.7238 15.2135 47.7613 15.7639Z" fill="black"/>
<path d="M57.42 20.2461L57.5033 17.4753L58.031 17.4917C58.2229 17.4976 58.3843 17.4546 58.5151 17.3626C58.6542 17.2629 58.7839 17.0748 58.9043 16.7984C58.9989 16.5773 59.0866 16.3239 59.1672 16.0382C59.2481 15.7446 59.3178 15.4226 59.3764 15.0722C59.4429 14.7221 59.4981 14.3517 59.5418 13.9608C59.5936 13.5703 59.6338 13.1633 59.6626 12.74L58.5693 12.7661L58.5888 12.1184L64.1061 12.2896L64.091 12.7934C63.8511 12.7859 63.6815 12.8367 63.5822 12.9456C63.4829 13.0546 63.4182 13.2087 63.3882 13.4079C63.3662 13.6073 63.3512 13.8389 63.3433 14.1028L63.2628 16.7776C63.2505 16.9213 63.2381 17.069 63.2255 17.2206C63.2132 17.3643 63.1967 17.5119 63.1762 17.6633L64.3171 17.6507L64.2327 20.4574L63.6689 20.4399C63.6884 19.7922 63.6362 19.2664 63.5123 18.8623C63.3961 18.4665 63.1502 18.2628 62.7743 18.2511L59.0081 18.1343C58.6483 18.1231 58.3905 18.3112 58.2348 18.6986C58.0871 19.0862 58.0034 19.6078 57.9837 20.2635L57.42 20.2461ZM59.2184 17.5285L61.2575 17.5918C61.4974 17.5992 61.667 17.5485 61.7663 17.4395C61.8736 17.3308 61.9383 17.1767 61.9603 16.9773C61.9905 16.7701 62.0095 16.5386 62.0172 16.2827L62.0943 13.7159C62.0987 13.5719 62.107 13.4281 62.1193 13.2844C62.1317 13.1408 62.1481 12.9932 62.1687 12.8418L61.0172 12.806C60.7853 12.7988 60.6196 12.8537 60.52 12.9707C60.4285 13.0879 60.3632 13.262 60.3243 13.4929C60.2606 14.0112 60.1904 14.4852 60.1134 14.915C60.0367 15.3368 59.9575 15.7066 59.876 16.0242C59.8024 16.3421 59.7265 16.6038 59.6483 16.8095C59.588 16.9517 59.52 17.0817 59.4444 17.1994C59.3769 17.3173 59.3015 17.4271 59.2184 17.5285Z" fill="black"/>
<path d="M69.3305 19.0473L69.4982 18.572C69.6411 18.624 69.7924 18.628 69.9521 18.584C70.1193 18.5427 70.2935 18.4699 70.4745 18.3656C70.6631 18.264 70.8519 18.1497 71.0409 18.0227C71.3038 17.8545 71.5579 17.6873 71.8032 17.5212C72.0559 17.3578 72.2932 17.2144 72.5149 17.0908C72.7367 16.9672 72.9349 16.8861 73.1097 16.8476L72.6704 15.6405C72.598 15.4609 72.4996 15.2591 72.3751 15.035C72.2581 14.8136 72.1119 14.6029 71.9365 14.4028C71.7712 14.1979 71.5661 14.0339 71.3212 13.9106L71.4849 13.4467L73.7063 14.2554L73.4986 14.8439L72.785 14.5585C72.8512 14.6592 72.9135 14.7713 72.9717 14.8947C73.0375 15.0208 73.1055 15.1647 73.1757 15.3265L73.8069 16.9993L74.3482 17.1963L74.6996 16.2005C74.7475 16.0647 74.7967 15.9252 74.8473 15.7818C74.9054 15.6412 74.9697 15.5071 75.0402 15.3796L74.3629 15.1713L74.5745 14.5715L76.9989 15.4542L76.8311 15.9294C76.6282 15.8555 76.463 15.855 76.3355 15.9278C76.208 16.0005 76.0997 16.1271 76.0106 16.3075C75.929 16.4906 75.8443 16.7067 75.7565 16.9556L75.5209 17.6233L76.0847 17.8286L77.6071 16.9398C77.77 16.8629 77.9125 16.7956 78.0346 16.7379C78.1568 16.6802 78.2787 16.6352 78.4004 16.6029L77.682 16.3669L77.8897 15.7785L80.0997 16.5831L79.936 17.0471C79.6698 16.9842 79.405 16.9772 79.1418 17.0261C78.8812 17.0674 78.6365 17.1358 78.4077 17.2313C78.1864 17.3295 77.9879 17.4233 77.8122 17.5125L76.7107 18.1459C76.7893 18.2596 76.8626 18.3885 76.9306 18.5324C77.0061 18.6791 77.0798 18.8549 77.1517 19.0598C77.2284 19.2751 77.3025 19.4979 77.3739 19.7282C77.4454 19.9585 77.5106 20.1823 77.5697 20.3996C77.6362 20.6197 77.7068 20.8284 77.7813 21.0258C77.8634 21.2259 77.9561 21.3959 78.0595 21.5357C78.1629 21.6755 78.2822 21.77 78.4175 21.8193L78.2498 22.2946L77.1673 21.9005C76.9719 21.8293 76.8134 21.6652 76.6921 21.4082C76.5733 21.1436 76.452 20.8143 76.3281 20.4201C76.2691 20.2028 76.2041 19.9663 76.1331 19.7106C76.0622 19.4549 75.9886 19.2068 75.9123 18.9662C75.8462 18.7208 75.7796 18.5007 75.7126 18.3061L75.3252 18.1778L74.8547 19.475C74.8068 19.6108 74.7538 19.749 74.6957 19.8896C74.6478 20.0254 74.5873 20.1609 74.5141 20.296L75.2027 20.5084L74.991 21.1081L72.5442 20.2173L72.7119 19.742C72.9299 19.8214 73.0989 19.8233 73.2188 19.7478C73.3463 19.675 73.4508 19.5471 73.5324 19.3639C73.6215 19.1836 73.71 18.9689 73.7978 18.7199L74.1412 17.7467L73.7844 17.604C73.6109 17.7111 73.4181 17.8368 73.2061 17.9809C73.0042 18.1202 72.7959 18.2658 72.5812 18.4175C72.374 18.5719 72.1797 18.714 71.9982 18.8437C71.656 19.0681 71.3526 19.2429 71.0879 19.3679C70.8334 19.488 70.6085 19.5126 70.413 19.4414L69.3305 19.0473Z" fill="black"/>
<path d="M85.1726 29.7039L87.1135 27.7248L87.4847 28.1003C87.6196 28.2369 87.7657 28.3164 87.9229 28.3389C88.0913 28.3614 88.3129 28.3125 88.5877 28.1923C88.8064 28.095 89.0419 27.9691 89.2942 27.8147C89.552 27.6546 89.8211 27.4659 90.1013 27.2487C90.3871 27.0373 90.6785 26.803 90.9755 26.5459C91.2781 26.2944 91.5834 26.0231 91.8915 25.7317L91.0819 24.9979L91.5357 24.5352L95.4158 28.4614L95.0629 28.8212C94.8942 28.6505 94.7369 28.571 94.591 28.5827C94.4451 28.5944 94.2937 28.6631 94.1368 28.7888C93.9855 28.9202 93.8174 29.0802 93.6326 29.2687L91.7589 31.1792C91.6524 31.2763 91.5432 31.3763 91.4311 31.4791C91.3247 31.5763 91.2126 31.6734 91.0949 31.7705L91.9299 32.5471L89.9637 34.5519L89.5673 34.1507C90.021 33.6881 90.3401 33.2656 90.5246 32.8833C90.7091 32.5124 90.6692 32.1932 90.4049 31.9258L87.7563 29.2457C87.5032 28.9897 87.1888 28.9504 86.8132 29.1278C86.4431 29.3109 86.0284 29.6367 85.5691 30.105L85.1726 29.7039ZM88.3197 28.9453L89.7537 30.3963C89.9224 30.567 90.0797 30.6465 90.2256 30.6349C90.3771 30.6289 90.5285 30.5602 90.6798 30.4288C90.8423 30.2973 91.0132 30.1402 91.1925 29.9574L92.9906 28.124C93.0914 28.0212 93.195 27.9212 93.3015 27.8241C93.4079 27.727 93.52 27.6299 93.6377 27.5327L92.8279 26.7133C92.6648 26.5483 92.5075 26.4745 92.356 26.4919C92.2101 26.515 92.0447 26.598 91.8598 26.7408C91.462 27.078 91.0893 27.378 90.7418 27.6409C90.4 27.8981 90.0917 28.1153 89.817 28.2926C89.548 28.4755 89.3153 28.6156 89.1191 28.7129C88.9789 28.7759 88.8415 28.8246 88.7068 28.8591C88.5778 28.8992 88.4488 28.928 88.3197 28.9453Z" fill="black"/>
<path d="M95.8221 37.5776L96.2615 37.3308C96.3763 37.5416 96.5054 37.6617 96.649 37.6912C96.7925 37.7206 96.9572 37.6969 97.1431 37.6201C97.329 37.5432 97.537 37.4401 97.7671 37.3109L100.1 36.0004C100.226 35.9299 100.355 35.8575 100.487 35.783C100.624 35.7156 100.759 35.6537 100.892 35.5972C100.824 35.4887 100.754 35.3767 100.682 35.2612C100.62 35.1487 100.559 35.0453 100.499 34.9509L101.053 34.6394L103.291 38.7499L101.629 39.7381L101.36 39.2427C101.649 39.0712 101.853 38.9017 101.971 38.7343C102.1 38.57 102.146 38.3789 102.11 38.161C102.08 37.9391 101.977 37.6666 101.801 37.3434L101.44 36.6794L98.0604 38.5774C97.9348 38.6479 97.8039 38.7169 97.6675 38.7843C97.5382 38.8478 97.4034 38.9097 97.2632 38.9701L97.6962 39.6902L97.1417 40.0017L95.8221 37.5776Z" fill="black"/>
<path d="M97.3077 49.1481C97.2467 48.8912 97.264 48.6522 97.3594 48.4312C97.449 48.2198 97.622 48.0827 97.8784 48.0198C98.0416 47.9798 98.2012 47.9942 98.3574 48.063C98.5153 48.1396 98.6147 48.2636 98.6553 48.4348C98.7075 48.6197 98.6806 48.7663 98.5748 48.8746C98.4708 48.9907 98.3528 49.0649 98.2207 49.0973C98.1974 49.103 98.1741 49.1087 98.1508 49.1144C98.1275 49.1201 98.0993 49.1229 98.0664 49.1227C98.0564 49.1499 98.0608 49.1859 98.0797 49.2307C98.1078 49.3144 98.1766 49.3964 98.2861 49.4766C98.3956 49.5568 98.5383 49.6207 98.714 49.6682C98.9071 49.7198 99.1691 49.7667 99.4998 49.8092C99.8306 49.8517 100.211 49.8944 100.64 49.9374L104.028 47.1675C104.413 46.8507 104.716 46.62 104.936 46.4753C105.167 46.3365 105.349 46.2383 105.483 46.1807L105.327 45.626L105.944 45.4746L106.557 48.0548L106.079 48.1719L106.074 48.1486C105.967 47.8371 105.805 47.6915 105.588 47.7118C105.372 47.7398 105.102 47.8842 104.778 48.145L102.263 50.1205C102.694 50.1713 103.16 50.2135 103.662 50.2471C104.165 50.2885 104.681 50.3309 105.209 50.3744C105.369 50.3927 105.538 50.4091 105.714 50.4236C105.9 50.444 106.07 50.4682 106.224 50.4962C106.381 50.5319 106.494 50.5743 106.563 50.6232L106.336 49.8758L106.954 49.7244L107.409 51.6391L106.931 51.7562C106.773 51.5066 106.551 51.3345 106.265 51.2398C105.982 51.1528 105.633 51.086 105.219 51.0392L100.77 50.5853C100.071 50.5176 99.4811 50.4398 98.9997 50.3519C98.5106 50.2658 98.1286 50.1288 97.8537 49.9409C97.5729 49.7626 97.3909 49.4983 97.3077 49.1481Z" fill="black"/>
<path d="M43.9872 44.0735H51.5257V80.9632L43.9872 88.5303V44.0735Z" fill="white"/>
<path d="M56.9103 44.0735H64.4488V73.1143L56.9103 79.0714V44.0735Z" fill="white"/>
<path d="M38.6026 34.6146H64.4488H82.7566V40.29H38.6026V34.6146Z" fill="white"/>
<path d="M69.8334 44.0735H77.3719V66.8352L69.8334 71.5043V44.0735Z" fill="white"/>
<defs>
<linearGradient id="paint0_linear_112_849" x1="59.8215" y1="-2.12823" x2="59.8215" y2="106.413" gradientUnits="userSpaceOnUse">
<stop stop-color="#727272"/>
<stop offset="0.588235" stop-color="#333131"/>
<stop offset="1" stop-color="#514D4D"/>
</linearGradient>
</defs>
</svg>
