<svg width="36" height="38" viewBox="0 0 36 38" fill="none" xmlns="http://www.w3.org/2000/svg">
<path d="M18 3.8C15.8783 3.8 13.8434 4.60071 12.3431 6.02599C10.8429 7.45126 10 9.38435 10 11.4C10 13.4156 10.8429 15.3487 12.3431 16.774C13.8434 18.1993 15.8783 19 18 19C20.1217 19 22.1566 18.1993 23.6569 16.774C25.1571 15.3487 26 13.4156 26 11.4C26 9.38435 25.1571 7.45126 23.6569 6.02599C22.1566 4.60071 20.1217 3.8 18 3.8ZM6 11.4C6 8.37653 7.26428 5.4769 9.51472 3.33898C11.7652 1.20107 14.8174 0 18 0C21.1826 0 24.2348 1.20107 26.4853 3.33898C28.7357 5.4769 30 8.37653 30 11.4C30 14.4235 28.7357 17.3231 26.4853 19.461C24.2348 21.5989 21.1826 22.8 18 22.8C14.8174 22.8 11.7652 21.5989 9.51472 19.461C7.26428 17.3231 6 14.4235 6 11.4ZM10 30.4C8.4087 30.4 6.88258 31.0005 5.75736 32.0695C4.63214 33.1384 4 34.5883 4 36.1C4 36.6039 3.78929 37.0872 3.41421 37.4435C3.03914 37.7998 2.53043 38 2 38C1.46957 38 0.960859 37.7998 0.585786 37.4435C0.210714 37.0872 0 36.6039 0 36.1C0 33.5804 1.05357 31.1641 2.92893 29.3825C4.8043 27.6009 7.34784 26.6 10 26.6H26C28.6522 26.6 31.1957 27.6009 33.0711 29.3825C34.9464 31.1641 36 33.5804 36 36.1C36 36.6039 35.7893 37.0872 35.4142 37.4435C35.0391 37.7998 34.5304 38 34 38C33.4696 38 32.9609 37.7998 32.5858 37.4435C32.2107 37.0872 32 36.6039 32 36.1C32 34.5883 31.3679 33.1384 30.2426 32.0695C29.1174 31.0005 27.5913 30.4 26 30.4H10Z" fill="#727272"/>
</svg>
